# xmcd
# Track frame offsets:
# 150
# 15004
# 30552
# 44588
# 59733
# 74698
# 89546
# 107433
# 123232
# 140754
# 156242
# 171992
# 189375
# 204185
# 220498
# 232874
# 250461
# 263195
#
# Disc length: 3786 seconds
# Revision: 0
# Processed by: cddbd v1.5.2PL0 Copyright (c) Steve Scherf et al.
# Submitted via: VisiTrax 2.11.3.279 - For more info visit www.synapsa.com
#
DISCID=050ec812
DTITLE=Various Artist - CREAM OF COUNTRY VOLUME 19
DYEAR=2016
DGENRE=Country
TTITLE0=Jason Aldean - Just Gettin' Started
TTITLE1=Zac Brown Band - Homegrown
TTITLE2=Florida Georgia Line - Sun Daze
TTITLE3=Kelsea Ballerini - Love Me Like You Mean It
TTITLE4=Chris Young - I'm Comin' Over
TTITLE5=Tyler Farr - A Guy Walks Into A Bar
TTITLE6=Brad Paisley - Perfect Storm
TTITLE7=Old Dominion - Break Up With Him
TTITLE8=Billy Currington - We Are Tonight
TTITLE9=Miranda Lambert - Little Red Wagon
TTITLE10=Lee Brice - Drinking Class
TTITLE11=Brett Eldredge - Mean To Me
TTITLE12=Craig Wayne Boyd - My Babys Got A Smile On Her
TTITLE13=Chase Rise - Gonna Wanna Tonight
TTITLE14=Easton Corbin - All Over The Road
TTITLE15=Cam - Burning House
TTITLE16=Jake Owen - Real Life
TTITLE17=Alan Jackson - Jim And Jack And Hank
EXTD=
EXTT0=
EXTT1=
EXTT2=
EXTT3=
EXTT4=
EXTT5=
EXTT6=
EXTT7=
EXTT8=
EXTT9=
EXTT10=
EXTT11=
EXTT12=
EXTT13=
EXTT14=
EXTT15=
EXTT16=
EXTT17=
PLAYORDER=
